<svg xmlns="http://www.w3.org/2000/svg" width="200" height="200" fill="#fff" fill-rule="evenodd" stroke="#000" stroke-linecap="round" stroke-linejoin="round" font-family="Roboto" font-size="14" text-anchor="middle"><style><![CDATA[svg text{paint-order:stroke;white-space:pre}svg .Text\.cls{stroke:none}]]></style><path fill-rule="nonzero" stroke="none" stroke-linecap="butt" stroke-linejoin="miter" d="M35 151h-5v-29h9l4 1 4 1 3 3 1 4-1 4-3 3-3 2-5 1h-4v10zm0-25v11h7l1-1 2-2v-3-2l-1-1-2-2h-7zM83 136l-1 6-2 4-3 3a17 17 0 01-6 2H57v-29h10l7 1 5 3c1 2 3 3 3 5l1 5zm-16 11c4 1 7-1 8-3 2-2 3-5 3-8l-1-4-2-3-4-2-6-1h-3v22h5zM96 126v9h14v3H96v13h-5v-29h21v4H96z"/><g stroke="red" stroke-width="2"><path fill-rule="nonzero" stroke="#4c0099" stroke-linejoin="miter" stroke-width="5" d="M129 19H34c-2 0-4 2-4 6v152c0 1 2 3 4 3h131c2 0 5-2 5-3V57l-1-3-38-34h-2"/><path fill="#4c0099" fill-rule="nonzero" stroke-width="0" d="M165 179H34c-2 0-4-2-4-4v-45h140v45c0 3-2 4-5 4zM133 83l-4-2c-4-3-4-9 0-12l4-2c3-2 4-6 2-9l-3-6c-2-3-6-4-9-2l-4 2c-4 3-10-1-10-6v-4c0-4-3-7-6-7h-7c-3 0-6 3-6 7v4c0 5-6 8-10 6l-4-2-5-1c-2 0-3 2-4 3l-3 6c-2 3-1 7 2 9l4 2c4 3 4 9 0 11l-4 3c-2 1-3 2-3 4-1 1 0 3 1 5l3 5c2 4 6 5 9 3l4-2c4-3 10 0 10 5v5c0 4 3 6 6 6h7c3 0 6-2 6-6v-4c0-5 6-9 10-6l4 2c2 1 3 2 5 1 2 0 3-1 4-3l3-6c2-3 1-7-2-9zm-34 5a13 13 0 110-26c8 0 14 6 14 13s-6 13-14 13z"/></g><path stroke="none" d="M66 144v10h3l5-1 1-4-1-4-4-1h-4zm17 5q0 6-4 8-3 3-9 3h-4v13h-7v-35h11q6 0 10 3 3 3 3 8zM118 155q0 9-5 13-5 5-14 5H89v-35h11q8 0 13 5 5 4 5 12zm-8 0q0-11-10-11h-4l1 23h3q10 0 10-12zM132 159v14h-7v-35h19v6h-12v9h12v6h-12z"/></svg>