<svg xmlns="http://www.w3.org/2000/svg" width="200" height="200" fill="#fff" stroke-linecap="round" stroke-linejoin="round"><path fill="#e9e9e0" d="M128.8 19.5H34.3c-2.7 0-4.8 2-4.8 5.5v151.6c0 1 2 3 4.8 3h130.4c2.7 0 4.8-2 4.8-3v-120c0-2-.3-2.6-.8-3l-38-33.3c-.6-.4-1.3-.7-2-.7z"/><path fill="#d9d7ca" d="M130.4 20v34H169z"/><path fill="#cc4b4c" d="M164.7 179.5H34.3c-2.7 0-4.8-2-4.8-4.2V131h140v44.4c0 2.3-2 4.2-4.8 4.2z"/><path d="M65 171h-5.3v-29H69c1.4 0 2.8.2 4.2.6 1.3.4 2.6 1 3.6 1.7 1 .8 2 1.8 2.7 3 .6 1 1 2.3 1 3.7 0 1.5-.3 2.8-1 4-.5 1.2-1.3 2.2-2.3 3s-2.3 1.4-3.7 1.8a14 14 0 01-4.7.7h-4V171zm0-25.2V157h5c.7 0 1.3-.1 2-.3.6-.2 1.2-.5 1.7-1a4 4 0 001.3-1.8c.3-.8.5-1.8.5-3 0-.5-.1-1-.2-1.6-.2-.6-.5-1.2-1-1.8-.5-.5-1-1-2-1.4-.8-.4-2-.5-3.3-.5h-4zm48.3 10c0 2.4-.3 4.4-1 6-.6 1.6-1.3 3-2.2 4.2s-2 2-3 2.7c-1 .6-2.2 1-3.2 1.4s-2 .6-3 .7l-2 .1h-12V142h10c2.7 0 5.2.4 7.3 1.2 2 .7 3.8 1.7 5.2 3 1.3 1.3 2.4 2.7 3 4.4.6 1.6 1 3.3 1 5zm-16 11.8c3.7 0 6.3-1 8-3s2.4-5 2.4-8.8c0-1.2-.2-2.4-.5-3.6-.3-1-1-2.2-2-3.2s-2.2-1.7-3.8-2.3-3.7-.8-6.2-.8H92v21.8h5.3zm29-21.8v9H140v3.2h-13.7v13H121v-29h20.5v3.6h-15z"/><path fill="#cc4b4b" d="M125.6 95l-3-1.8c-3.4-2-3.4-7 0-9l3-1.8c2.6-1.5 3.4-4.6 1.8-7L125 71c-1.6-2.6-4.6-3.4-7-1.8l-3 1.8c-3.4 2-7.7-.5-7.7-4.4V63c0-2.8-2.3-5-5-5H97c-2.8 0-5 2.3-5 5v3.4c0 3.8-4.3 6.4-7.7 4.3l-3-1.5a5 5 0 00-7 1.8l-2.5 4.3c-1.3 2.6-.5 5.7 1.8 7.2l3 1.8c3.3 1.8 3.3 7 0 8.7l-3 1.8a4.94 4.94 0 00-1.8 7l2.5 4.4c1.6 2.5 4.7 3.3 7 1.7l3-1.5c3.4-2 7.7.5 7.7 4.4v3.6c0 2.8 2.3 5 5 5h5.2c2.8 0 5-2.3 5-5V111c0-3.8 4.3-6.4 7.7-4.3l3 1.8a5 5 0 006.9-1.8l2.5-4.4c1.3-2.8.5-6-1.8-7.4zm-26 4a10.24 10.24 0 010-20.5c5.6 0 10.3 4.6 10.3 10.2 0 5.7-4.7 10.3-10.3 10.3z"/></svg>