<svg xmlns="http://www.w3.org/2000/svg" width="200" height="200" stroke="#000" stroke-linecap="round" stroke-linejoin="round" fill="#fff" fill-rule="evenodd"><g fill-rule="nonzero" stroke="none"><path d="M35 151h-5.3v-29H39c1.4 0 2.8.2 4.2.6 1.3.4 2.6 1 3.6 1.7 1 .8 2 1.8 2.7 3 .6 1 1 2.3 1 3.7 0 1.5-.3 2.8-1 4-.5 1.2-1.3 2.2-2.3 3s-2.3 1.4-3.7 1.8a14 14 0 0 1-4.7.7h-4V151zm0-25.2V137h5c.7 0 1.3-.1 2-.3.6-.2 1.2-.5 1.7-1a4 4 0 0 0 1.3-1.8c.3-.8.5-1.8.5-3 0-.5-.1-1-.2-1.6-.2-.6-.5-1.2-1-1.8-.5-.5-1-1-2-1.4-.8-.4-2-.5-3.3-.5h-4zm48.3 10c0 2.4-.3 4.4-1 6-.6 1.6-1.3 3-2.2 4.2s-2 2-3 2.7c-1 .6-2.2 1-3.2 1.4s-2 .6-3 .7l-2 .1h-12V122h10c2.7 0 5.2.4 7.3 1.2 2 .7 3.8 1.7 5.2 3 1.3 1.3 2.4 2.7 3 4.4.6 1.6 1 3.3 1 5zm-16 11.8c3.7 0 6.3-1 8-3s2.4-5 2.4-8.8c0-1.2-.2-2.4-.5-3.6-.3-1-1-2.2-2-3.2s-2.2-1.7-3.8-2.3-3.7-.8-6.2-.8H62v21.8h5.3zm29-21.8v9H110v3.2H96.4v13H91v-29h20.5v3.6h-15z"/><path d="M125.6 95l-3-1.8c-3.4-2-3.4-7 0-9l3-1.8c2.6-1.5 3.4-4.6 1.8-7L125 71c-1.6-2.6-4.6-3.4-7-1.8l-3 1.8c-3.4 2-7.7-.5-7.7-4.4V63c0-2.8-2.3-5-5-5H97c-2.8 0-5 2.3-5 5v3.4c0 3.8-4.3 6.4-7.7 4.3l-3-1.5a5 5 0 0 0-7 1.8l-2.5 4.3c-1.3 2.6-.5 5.7 1.8 7.2l3 1.8c3.3 1.8 3.3 7 0 8.7l-3 1.8c-2.6 1.5-3.3 4.6-1.8 7l2.5 4.4c1.6 2.5 4.7 3.3 7 1.7l3-1.5c3.4-2 7.7.5 7.7 4.4v3.6c0 2.8 2.3 5 5 5h5.2c2.8 0 5-2.3 5-5V111c0-3.8 4.3-6.4 7.7-4.3l3 1.8a5 5 0 0 0 6.9-1.8l2.5-4.4c1.3-2.8.5-6-1.8-7.4zm-26 4c-5.6 0-10.2-4.6-10.2-10.3 0-5.6 4.6-10.2 10.2-10.2s10.3 4.6 10.3 10.2c0 5.7-4.7 10.3-10.3 10.3z" fill="#cc4b4b"/></g><g fill-rule="nonzero"><path d="M128.8 19.4H34.3c-2.7 0-4.8 2-4.8 5.5v151.6c0 1 2 3 4.8 3h130.4c2.7 0 4.8-2 4.8-3v-120c0-2-.3-2.6-.8-3l-38-33.3c-.6-.4-1.3-.7-2-.7z" stroke="#cc4b4b" stroke-linejoin="miter" stroke-width="5"/><g stroke="none"><path d="M164.7 179.4H34.3c-2.7 0-4.8-2-4.8-4.2v-44.8h140v45c0 2.3-2 4.2-4.8 4.2z" fill="#cc4b4c"/><path d="M56 174.5h-6.5V139H61a18 18 0 0 1 5.1.7 18 18 0 0 1 4.4 2.1c1.2 1 2.4 2.2 3.3 3.7.7 1.2 1.2 2.8 1.2 4.5 0 1.8-.3 3.4-1.2 5-.6 1.5-1.6 2.7-2.8 3.7-1.2 1-2.8 1.7-4.5 2.2-2 .6-3.8 1-5.8.8h-5v13zm0-31v13.7h6c.8 0 1.6-.1 2.4-.3.8-.3 1.5-.6 2-1.3.7-.5 1.3-1.3 1.6-2.2.4-1 .6-2.2.6-3.6 0-.6-.1-1.2-.2-2-.3-.7-.6-1.4-1.3-2.2-.6-.6-1.2-1.2-2.4-1.7-1-.5-2.4-.6-4-.6h-5zm59 12.3c0 3-.3 5.3-1.2 7.3-.7 2-1.6 3.7-2.7 5-1 1.5-2.4 2.5-3.7 3.3-1.2.8-2.6 1.3-4 1.8-1.2.4-2.4.7-3.6.8l-2.5.1H82.8V139H95c3.3 0 6.3.5 9 1.5 2.4.8 4.6 2 6.4 3.6 1.5 1.6 3 3.3 3.6 5.4.8 2 1.2 4 1.2 6zm-19.5 14.4c4.5 0 7.7-1.2 9.7-3.7 2-2.4 3-6 3-10.7 0-1.5-.3-3-.6-4.4-.4-1.3-1.3-2.7-2.5-4-1.2-1.3-2.7-2-4.6-3-2-.7-4.5-1-7.6-1h-4v26.6h6.5zm35.4-26.7v11h16.8v4H131v16h-6.5V139h25v4.4h-18.3z"/><path d="M133 83l-3.8-2.3c-4.4-2.6-4.4-9 0-11.6l3.8-2.4c3.4-2 4.4-6 2.4-9l-3-5.6c-2-3.4-6-4.4-9-2.4l-3.8 2.4c-4.4 2.5-10-.7-10-5.7v-4.7c0-3.6-3-6.4-6.5-6.4H96c-3.6 0-6.5 3-6.5 6.4v4.4c0 5-5.5 8.3-10 5.6l-4-2c-1.4-1-3.3-1.2-5-.7-1.7.4-3 1.5-4 3l-3.2 5.5C62 61 63 65 66 67l4 2.3c4.2 2.3 4.2 9 0 11.2l-4 2.3c-1.5 1-2.7 2.3-3 4a7 7 0 0 0 .8 5.1l3.2 5.6c2 3.2 6 4.3 9 2.2l4-2c4.4-2.6 10 .6 10 5.7v4.6c0 3.6 3 6.4 6.5 6.4h6.7c3.6 0 6.4-3 6.4-6.4v-4.4c0-5 5.6-8.2 10-5.5l3.8 2.3c1.5 1 3.3 1 5 .7 1.6-.4 3-1.5 4-3l3.2-5.7c1.7-3.6.7-7.7-2.3-9.5zm-33.5 5c-7.3 0-13.2-6-13.2-13.2s6-13.2 13.2-13.2c7.2 0 13.3 6 13.3 13.2s-6 13.2-13.3 13.2z" fill="#cc4b4b"/></g></g></svg>