<svg xmlns="http://www.w3.org/2000/svg" width="200" height="200" fill="#fff" fill-rule="evenodd" stroke="#000" stroke-linecap="round" stroke-linejoin="round" font-family="Roboto" font-size="14" text-anchor="middle"><style><![CDATA[svg text{paint-order:stroke;white-space:pre}svg .Text\.cls{stroke:none}]]></style><path fill-rule="nonzero" stroke="none" stroke-linecap="butt" stroke-linejoin="miter" d="M34.9 150.9h-5.3v-28.8H39a13.3 13.3 0 017.8 2.3c1.1.8 2 1.8 2.7 2.9.6 1.1 1 2.3 1 3.7 0 1.5-.3 2.8-.9 4a7.6 7.6 0 01-2.3 3c-1 .8-2.3 1.4-3.7 1.8-1.4.5-3 .7-4.7.7h-4v10.4zm0-25.2v11.4h4.9a7 7 0 002-.3c.6-.2 1.2-.5 1.7-1a4 4 0 001.3-1.8c.3-.8.5-1.8.5-3l-.2-1.6-.9-1.8c-.5-.5-1.1-1-2-1.4-.8-.4-1.9-.5-3.3-.5h-4zM83.3 135.7c0 2.4-.3 4.4-.9 6.1-.6 1.6-1.3 3.1-2.2 4.2-.9 1.1-1.9 2-3 2.7a17.3 17.3 0 01-6.1 2.1l-1.9.1H56.8v-28.8h9.9c2.7 0 5.2.4 7.3 1.2 2 .7 3.8 1.7 5.2 3 1.3 1.3 2.4 2.7 3.1 4.4.6 1.6 1 3.3 1 5zm-15.9 11.8c3.7 0 6.3-1.1 7.9-3.1 1.6-2 2.4-5 2.4-8.8 0-1.2-.2-2.4-.5-3.6-.3-1.1-1-2.2-1.9-3.2-.9-.9-2.2-1.7-3.8-2.3-1.6-.6-3.7-.8-6.2-.8h-3.2v21.8h5.3zM96.4 125.7v9h13.7v3.2H96.4v13H91v-28.8h20.5v3.6H96.4z"/><g stroke="red" stroke-width="2"><path fill-rule="nonzero" stroke="#4c0099" stroke-linejoin="miter" stroke-width="5" d="M128.8 19.4H34.3c-2.7 0-4.8 2-4.8 5.5v151.6c0 1 2 3 4.8 3h130.4c2.7 0 4.8-2 4.8-3v-120c0-2-.3-2.6-.8-3l-38-33.3c-.6-.4-1.3-.7-2-.7"/><path fill="#4c0099" fill-rule="nonzero" stroke-width="0" d="M164.7 179.4H34.3c-2.7 0-4.8-2-4.8-4.2v-44.8h140v44.9c0 2.3-2 4.2-4.8 4.2zM132.9 83.1l-3.8-2.3a6.7 6.7 0 010-11.6l3.8-2.4a6.3 6.3 0 002.4-9l-3.1-5.6c-2.1-3.4-6-4.4-9.1-2.4l-3.8 2.4a6.6 6.6 0 01-9.9-5.7v-4.7c0-3.6-3-6.4-6.5-6.4h-6.8c-3.6 0-6.5 3-6.5 6.4v4.4c0 4.9-5.5 8.3-9.9 5.6l-3.9-2a6.2 6.2 0 00-5-.7 6.2 6.2 0 00-4 3.1l-3.2 5.5a7.3 7.3 0 002.3 9.3l3.9 2.3c4.2 2.3 4.2 9 0 11.2l-3.9 2.3a6.5 6.5 0 00-3.1 4 7 7 0 00.8 5.1l3.2 5.6c2.1 3.2 6.1 4.3 9 2.2l3.9-1.9c4.4-2.6 9.9.6 9.9 5.7v4.6c0 3.6 3 6.4 6.5 6.4h6.7c3.6 0 6.4-2.9 6.4-6.4v-4.4c0-4.9 5.6-8.2 10-5.5l3.8 2.3a6.5 6.5 0 008.9-2.3l3.2-5.7c1.7-3.6.7-7.7-2.3-9.5zm-33.5 5.1a13.2 13.2 0 110-26.4c7.2 0 13.3 5.9 13.3 13.2 0 7.3-6.1 13.2-13.3 13.2z"/></g><path stroke="none" d="M66.4 144.3v10.1h2.4q3.3 0 5-1.3 1.6-1.3 1.6-3.9 0-2.5-1.4-3.7-1.4-1.2-4.3-1.2h-3.3zm16.4 4.7q0 5.5-3.5 8.4-3.4 3-9.8 3h-3.1v12.2h-7.3v-34.3H70q6.3 0 9.5 2.7 3.3 2.7 3.3 8zM117.6 155.1q0 8.5-4.8 13t-13.9 4.5h-9.7v-34.3H100q8.3 0 13 4.4 4.6 4.5 4.6 12.4zm-7.5.2q0-11-9.8-11h-3.8v22.3h3.1q10.5 0 10.5-11.3zM131.8 159v13.6h-7.1v-34.3h19.6v6h-12.5v8.8h11.7v5.9h-11.7z"/></svg>